Coordinates
version=1
nRows=7
nColumns=40
inDegrees=yes

Units are S.I. units (second, meters, Newtons, ...)
If the header above contains a line with 'inDegrees', this indicates whether rotational values are in degrees (yes) or radians (no).

endheader
time	pelvis_tilt	pelvis_list	pelvis_rotation	pelvis_tx	pelvis_ty	pelvis_tz	hip_flexion_r	hip_adduction_r	hip_rotation_r	knee_angle_r	knee_angle_r_beta	ankle_angle_r	subtalar_angle_r	mtp_angle_r	hip_flexion_l	hip_adduction_l	hip_rotation_l	knee_angle_l	knee_angle_l_beta	ankle_angle_l	subtalar_angle_l	mtp_angle_l	lumbar_extension	lumbar_bending	lumbar_rotation	arm_flex_r	arm_add_r	arm_rot_r	elbow_flex_r	pro_sup_r	wrist_flex_r	wrist_dev_r	arm_flex_l	arm_add_l	arm_rot_l	elbow_flex_l	pro_sup_l	wrist_flex_l	wrist_dev_l
      2.12500000	     16.69454480	     -2.96522411	      0.94231296	     -0.30046117	      1.02748009	     -1.06490706	     18.09692764	      1.37878897	      3.17464712	      2.64953514	      0.04624311	     -7.34275320	      0.00000000	      0.00000000	      2.20895782	     -1.76026325	     -8.21983253	     39.85123301	      0.69553523	      9.27726483	      0.00000000	      0.00000000	    -23.48366892	     -0.85067648	      1.57259052	     79.19938657	     -4.56156896	     36.24361749	     36.15127168	     85.70306061	      0.00000000	      0.00000000	     89.58970224	    -10.93433442	     57.52594280	     40.00296695	     85.73644276	      0.00000000	      0.00000000
      2.13000000	     16.66696361	     -3.09577558	      0.97160793	     -0.30120377	      1.02604091	     -1.06491527	     18.25068488	      1.50316314	      2.94392801	      2.68442037	      0.04685197	     -7.32035632	      0.00000000	      0.00000000	      2.59941146	     -1.91892859	     -8.09370458	     40.49681770	      0.70680281	      9.54973372	      0.00000000	      0.00000000	    -23.54060241	     -0.67968769	      1.57637246	     79.53804531	     -4.42297648	     36.43471999	     35.85823679	     85.78112347	      0.00000000	      0.00000000	     89.61645459	    -10.89895913	     57.15019746	     40.03674836	     85.78451655	      0.00000000	      0.00000000
      2.13500000	     16.62440826	     -3.16169230	      1.06255328	     -0.30174277	      1.02469098	     -1.06510556	     18.38473755	      1.51870707	      2.68015705	      2.65554680	      0.04634804	     -7.37722830	      0.00000000	      0.00000000	      2.94531396	     -1.95165464	     -7.78207105	     41.01796966	      0.71589862	      9.82356928	      0.00000000	      0.00000000	    -23.58429441	     -0.54728117	      1.48412771	     79.78761764	     -4.31523826	     36.55237435	     35.72090584	     85.78822986	      0.00000000	      0.00000000	     89.63991016	    -10.88831297	     56.80671362	     40.09474222	     85.84533651	      0.00000000	      0.00000000
      2.14000000	     16.54068017	     -3.20291643	      1.02952302	     -0.30219343	      1.02303877	     -1.06491936	     18.59249528	      1.56523501	      2.56113740	      2.68584543	      0.04687685	     -7.28439092	      0.00000000	      0.00000000	      3.35049674	     -2.00663285	     -7.69745646	     41.62361739	      0.72646917	     10.14982014	      0.00000000	      0.00000000	    -23.54000078	     -0.52381211	      1.53054659	     80.01868813	     -4.19892369	     36.62972858	     35.51695503	     85.75110241	      0.00000000	      0.00000000	     89.65903259	    -10.81733290	     56.51175692	     40.09081259	     85.88185018	      0.00000000	      0.00000000
      2.14500000	     16.47393064	     -3.23203648	      1.02892576	     -0.30302311	      1.02158184	     -1.06498555	     18.80649105	      1.57385662	      2.38365548	      2.73709638	      0.04777134	     -7.29215231	      0.00000000	      0.00000000	      3.75301071	     -2.00094235	     -7.48660229	     42.16616567	      0.73593842	     10.36995462	      0.00000000	      0.00000000	    -23.58449934	     -0.45356707	      1.54792624	     80.27360788	     -4.11964302	     36.70502281	     35.43226432	     85.78167621	      0.00000000	      0.00000000	     89.67905823	    -10.70456889	     56.03544281	     40.03915179	     85.89407237	      0.00000000	      0.00000000
      2.15000000	     16.26720132	     -3.29752164	      1.01812288	     -0.30356532	      1.01977259	     -1.06489770	     19.15060957	      1.62129293	      2.35746229	      2.74605283	      0.04792766	     -7.27204074	      0.00000000	      0.00000000	      4.35960173	     -2.04252856	     -7.20201295	     42.83735663	      0.74765292	     10.62205970	      0.00000000	      0.00000000	    -23.44053796	     -0.38332507	      1.59961077	     80.51932666	     -4.04454922	     36.82534789	     35.27442712	     85.72518194	      0.00000000	      0.00000000	     89.69196595	    -10.62194172	     55.70960112	     40.08829815	     85.91218494	      0.00000000	      0.00000000
      2.15500000	     16.24555991	     -3.29604690	      1.01864418	     -0.30422006	      1.01836184	     -1.06500711	     19.28529782	      1.59974778	      2.19615255	      2.76627317	      0.04828057	     -7.28749862	      0.00000000	      0.00000000	      4.66272875	     -2.00853923	     -7.05125461	     43.29370114	      0.75561763	     10.82737427	      0.00000000	      0.00000000	    -23.51500258	     -0.35691673	      1.61857437	     80.74857380	     -3.99445893	     36.86999030	     35.19412053	     85.69704069	      0.00000000	      0.00000000	     89.70460856	    -10.47320047	     55.25929804	     39.96100229	     85.88023618	      0.00000000	      0.00000000
